<svg width="272" height="43" viewBox="0 0 272 43" fill="none" xmlns="http://www.w3.org/2000/svg">
<path d="M0.166667 17.5H4.33333V38.3333H0.166667V17.5ZM0.166667 0.833331H4.33333V9.16667H0.166667V0.833331ZM12.6667 13.3333H33.5V17.5H16.8333V38.3333H12.6667V13.3333ZM33.5 17.5H37.6667V38.3333H33.5V17.5ZM46.0163 34.1667H66.8496V38.3333H46.0163V34.1667ZM46.0163 17.5H50.1829V25.8333H46.0163V17.5ZM50.1829 25.8333H66.8496V30H50.1829V25.8333ZM50.1829 13.3333H71.0163V17.5H50.1829V13.3333ZM66.8496 30H71.0163V34.1667H66.8496V30ZM79.3659 17.5H87.6992V9.16667H91.8659V17.5H104.366V21.6667H91.8659V34.1667H87.6992V21.6667H79.3659V17.5ZM91.8659 34.1667H104.366V38.3333H91.8659V34.1667ZM112.715 25.8333H116.882V34.1667H129.382V25.8333H116.882V21.6667H129.382V17.5H133.549V34.1667H137.715V38.3333H112.715V25.8333ZM112.715 13.3333H129.382V17.5H112.715V13.3333ZM146.065 38.3333H166.898V42.5H146.065V38.3333ZM146.065 17.5H150.232V25.8333H146.065V17.5ZM150.232 25.8333H166.898V17.5H150.232V13.3333H171.065V38.3333H166.898V30H150.232V25.8333ZM179.415 13.3333H183.581V21.6667H187.748V25.8333H183.581V38.3333H179.415V13.3333ZM187.748 17.5H191.915V21.6667H187.748V17.5ZM191.915 13.3333H200.248V17.5H191.915V13.3333ZM200.248 17.5H204.415V21.6667H200.248V17.5ZM212.764 25.8333H216.931V34.1667H229.431V25.8333H216.931V21.6667H229.431V17.5H233.598V34.1667H237.764V38.3333H212.764V25.8333ZM212.764 13.3333H229.431V17.5H212.764V13.3333ZM246.114 13.3333H254.447V17.5H250.281V38.3333H246.114V13.3333ZM254.447 17.5H258.614V38.3333H254.447V17.5ZM258.614 13.3333H266.947V17.5H258.614V13.3333ZM266.947 17.5H271.114V38.3333H266.947V17.5Z" fill="white"/>
</svg>
