<svg width="1163" height="864" viewBox="0 0 1163 864" fill="none" xmlns="http://www.w3.org/2000/svg">
<path d="M0.672563 18.48C0.672563 17.04 0.896563 15.888 1.34456 15.024C1.82456 14.128 2.46456 13.488 3.26456 13.104C4.09656 12.72 5.00856 12.528 6.00056 12.528C6.99256 12.528 7.88856 12.72 8.68856 13.104C9.48856 13.488 10.1286 14.128 10.6086 15.024C11.0886 15.888 11.3286 17.04 11.3286 18.48C11.3286 19.888 11.0886 21.04 10.6086 21.936C10.1286 22.8 9.48856 23.44 8.68856 23.856C7.88856 24.24 6.99256 24.432 6.00056 24.432C5.00856 24.432 4.09656 24.24 3.26456 23.856C2.46456 23.44 1.82456 22.8 1.34456 21.936C0.896563 21.04 0.672563 19.888 0.672563 18.48ZM46 0H74V12H70V4H62V12H58V4H46V0ZM54 12H58V16H54V12ZM66 12H70V16H66V12ZM42 20H82V24H62V32H58V24H42V20ZM50 36H54V44H70V36H54V32H74V48H50V36ZM86.0156 8H90.0156V36H86.0156V8ZM90.0156 36H102.016V40H90.0156V36ZM90.0156 4H102.016V8H90.0156V4ZM102.016 8H106.016V36H102.016V8ZM110.016 16H114.016V0H118.016V44H114.016V20H110.016V16ZM122.016 0H126.016V44H122.016V0ZM158.047 4H162.047V16H158.047V4ZM162.047 16H178.047V20H162.047V16ZM162.047 0H178.047V4H162.047V0ZM178.047 4H182.047V16H178.047V4ZM150.047 24H162.047V20H166.047V24H174.047V20H178.047V24H190.047V28H150.047V24ZM158.047 36H162.047V44H158.047V36ZM162.047 44H178.047V48H162.047V44ZM162.047 32H178.047V36H162.047V32ZM178.047 36H182.047V44H178.047V36ZM194.062 4H214.063V32H210.063V8H194.062V4ZM202.063 36H206.062V40H202.063V36ZM206.062 32H210.063V36H206.062V32ZM226.063 0H230.062V44H226.063V0ZM242.047 8H262.047V4H242.047V0H266.047V12H246.047V16H242.047V8ZM246.047 16H266.047V20H246.047V16ZM234.047 20H274.047V24H234.047V20ZM242.047 40H254.047V44H266.047V48H246.047V44H242.047V40ZM242.047 32H262.047V36H266.047V40H254.047V36H242.047V32ZM298.078 4H302.078V20H298.078V4ZM302.078 20H318.078V24H302.078V20ZM302.078 0H318.078V4H302.078V0ZM318.078 4H322.078V20H318.078V4ZM322.078 12H330.078V0H334.078V28H330.078V16H322.078V12ZM310.078 28H334.078V32H314.078V44H310.078V28ZM314.078 44H334.078V48H314.078V44ZM342.063 4H370.063V20H366.063V8H342.063V4ZM362.062 20H366.063V24H362.062V20ZM338.062 36H350.062V24H354.063V36H370.063V40H338.062V36ZM374.062 20H378.063V24H374.062V20ZM378.063 16H382.063V20H378.063V16ZM382.063 0H386.062V16H382.063V0ZM386.062 16H390.063V20H386.062V16ZM390.063 20H398.062V24H390.063V20ZM406.063 0H410.062V28H406.063V0ZM386.062 44H390.063V32H386.062V28H410.062V32H406.063V44H410.062V48H386.062V44ZM402.063 44V32H394.063V44H402.063ZM422.047 4H426.047V16H422.047V4ZM426.047 16H442.047V20H426.047V16ZM426.047 0H442.047V4H426.047V0ZM442.047 4H446.047V16H442.047V4ZM414.047 20H454.047V24H414.047V20ZM422.047 32H426.047V44H422.047V32ZM426.047 44H446.047V48H426.047V44ZM0.672563 114.48C0.672563 113.04 0.896563 111.888 1.34456 111.024C1.82456 110.128 2.46456 109.488 3.26456 109.104C4.09656 108.72 5.00856 108.528 6.00056 108.528C6.99256 108.528 7.88856 108.72 8.68856 109.104C9.48856 109.488 10.1286 110.128 10.6086 111.024C11.0886 111.888 11.3286 113.04 11.3286 114.48C11.3286 115.888 11.0886 117.04 10.6086 117.936C10.1286 118.8 9.48856 119.44 8.68856 119.856C7.88856 120.24 6.99256 120.432 6.00056 120.432C5.00856 120.432 4.09656 120.24 3.26456 119.856C2.46456 119.44 1.82456 118.8 1.34456 117.936C0.896563 117.04 0.672563 115.888 0.672563 114.48ZM42 104H46V132H42V104ZM46 132H58V136H46V132ZM46 100H58V104H46V100ZM58 104H62V132H58V104ZM74 96H78V140H74V96ZM81.9844 112H105.984V108H81.9844V104H109.984V116H85.9844V120H81.9844V112ZM85.9844 120H109.984V124H85.9844V120ZM81.9844 124H109.984V128H113.984V100H117.984V140H113.984V132H105.984V128H97.9844V140H93.9844V128H81.9844V124ZM129.969 96H153.969V100H133.969V112H129.969V96ZM133.969 112H153.969V116H133.969V112ZM121.969 116H161.969V120H141.969V128H137.969V120H121.969V116ZM129.969 128H133.969V140H129.969V128ZM133.969 140H153.969V144H133.969V140ZM186 96H210V112H206V100H186V96ZM198 116H202V120H198V116ZM202 112H206V116H202V112ZM210 108H218V96H222V124H218V112H210V108ZM198 140H202V144H198V140ZM202 136H206V140H202V136ZM206 124H210V136H206V124ZM210 136H214V140H210V136ZM214 140H222V144H214V140ZM246 100H250V116H246V100ZM250 116H266V120H250V116ZM250 96H266V100H250V96ZM266 100H270V116H266V100ZM270 108H278V96H282V124H278V112H270V108ZM258 124H262V132H266V124H270V136H274V144H262V140H266V136H262V140H258V124ZM274 124H278V136H274V124ZM278 136H282V144H278V136ZM285.984 104H289.984V132H285.984V104ZM289.984 132H301.984V136H289.984V132ZM289.984 100H301.984V104H289.984V100ZM301.984 104H305.984V132H301.984V104ZM317.984 96H321.984V140H317.984V96ZM345.984 100H349.984V132H345.984V100ZM349.984 132H365.984V136H349.984V132ZM373.984 96H377.984V112H385.984V116H377.984V140H373.984V96ZM390 104H394V132H390V104ZM394 132H406V136H394V132ZM394 100H406V104H394V100ZM406 104H410V132H406V104ZM422 96H426V140H422V96ZM429.984 96H453.984V120H433.984V116H449.984V100H433.984V116H429.984V96ZM457.984 96H461.984V108H469.984V112H461.984V124H457.984V96ZM441.984 124H445.984V140H441.984V124ZM445.984 140H465.984V144H445.984V140ZM494.016 96H518.016V120H498.016V116H514.016V100H498.016V116H494.016V96ZM518.016 108H526.016V96H530.016V124H526.016V112H518.016V108ZM506.016 124H530.016V140H526.016V128H506.016V124ZM522.016 140H526.016V144H522.016V140ZM534 100H554V128H550V104H534V100ZM542 132H546V136H542V132ZM546 128H550V132H546V128ZM566 96H570V140H566V96ZM598 100H626V104H602V116H598V100ZM602 116H626V120H602V116ZM594 124H630V128H614V140H610V128H594V124ZM633.984 116H649.984V104H633.984V100H653.984V120H637.984V132H633.984V116ZM637.984 132H653.984V136H637.984V132ZM657.984 120H665.984V112H657.984V108H665.984V96H669.984V140H665.984V124H657.984V120ZM681.969 100H685.969V112H681.969V100ZM685.969 112H701.969V116H685.969V112ZM685.969 96H701.969V100H685.969V96ZM701.969 100H705.969V112H701.969V100ZM673.969 116H713.969V120H693.969V128H689.969V120H673.969V116ZM681.969 128H685.969V140H681.969V128ZM685.969 140H705.969V144H685.969V140ZM0.672563 210.48C0.672563 209.04 0.896563 207.888 1.34456 207.024C1.82456 206.128 2.46456 205.488 3.26456 205.104C4.09656 204.72 5.00856 204.528 6.00056 204.528C6.99256 204.528 7.88856 204.72 8.68856 205.104C9.48856 205.488 10.1286 206.128 10.6086 207.024C11.0886 207.888 11.3286 209.04 11.3286 210.48C11.3286 211.888 11.0886 213.04 10.6086 213.936C10.1286 214.8 9.48856 215.44 8.68856 215.856C7.88856 216.24 6.99256 216.432 6.00056 216.432C5.00856 216.432 4.09656 216.24 3.26456 215.856C2.46456 215.44 1.82456 214.8 1.34456 213.936C0.896563 213.04 0.672563 211.888 0.672563 210.48ZM42 200H66V204H46V208H62V212H46V216H42V200ZM46 216H66V220H46V216ZM42 224H54V216H58V224H74V192H78V240H74V228H42V224ZM81.9844 220H85.9844V232H81.9844V220ZM85.9844 216H89.9844V220H85.9844V216ZM89.9844 196H93.9844V216H89.9844V196ZM93.9844 216H97.9844V220H93.9844V216ZM97.9844 220H101.984V232H97.9844V220ZM109.984 192H113.984V208H121.984V212H113.984V236H109.984V192ZM146.016 192H170.016V208H166.016V196H146.016V192ZM158.016 212H162.016V216H158.016V212ZM162.016 208H166.016V212H162.016V208ZM174.016 192H178.016V204H186.016V208H178.016V220H174.016V192ZM158.016 220H182.016V236H178.016V224H158.016V220ZM174.016 236H178.016V240H174.016V236ZM210.047 216H214.047V232H210.047V216ZM210.047 196H230.047V200H222.047V212H218.047V200H210.047V196ZM214.047 212H218.047V216H214.047V212ZM222.047 212H226.047V216H222.047V212ZM226.047 216H230.047V232H226.047V216ZM238.047 192H242.047V208H246.047V192H250.047V236H246.047V212H242.047V232H238.047V192ZM262.063 192H266.062V208H262.063V192ZM266.062 208H286.063V212H266.062V208ZM254.062 212H294.063V216H254.062V212ZM262.063 224H266.062V236H262.063V224ZM266.062 236H286.063V240H266.062V236ZM0.672563 306.48C0.672563 305.04 0.896563 303.888 1.34456 303.024C1.82456 302.128 2.46456 301.488 3.26456 301.104C4.09656 300.72 5.00856 300.528 6.00056 300.528C6.99256 300.528 7.88856 300.72 8.68856 301.104C9.48856 301.488 10.1286 302.128 10.6086 303.024C11.0886 303.888 11.3286 305.04 11.3286 306.48C11.3286 307.888 11.0886 309.04 10.6086 309.936C10.1286 310.8 9.48856 311.44 8.68856 311.856C7.88856 312.24 6.99256 312.432 6.00056 312.432C5.00856 312.432 4.09656 312.24 3.26456 311.856C2.46456 311.44 1.82456 310.8 1.34456 309.936C0.896563 309.04 0.672563 307.888 0.672563 306.48ZM42 292H46V308H42V292ZM46 308H62V312H46V308ZM46 288H62V292H46V288ZM62 292H66V308H62V292ZM66 304H74V300H66V296H74V288H78V316H74V308H66V304ZM54 320H58V332H54V320ZM58 332H74V336H58V332ZM58 316H74V320H58V316ZM74 320H78V332H74V320ZM85.9844 292H89.9844V300H85.9844V292ZM89.9844 300H105.984V304H89.9844V300ZM89.9844 288H105.984V292H89.9844V288ZM105.984 292H109.984V300H105.984V292ZM85.9844 308H109.984V312H97.9844V320H93.9844V312H85.9844V308ZM109.984 312H113.984V288H117.984V320H113.984V316H109.984V312ZM93.9844 320H97.9844V332H93.9844V320ZM97.9844 332H117.984V336H97.9844V332ZM121.969 300H129.969V292H133.969V300H141.969V324H137.969V304H125.969V324H121.969V300ZM125.969 324H137.969V328H125.969V324ZM153.969 288H157.969V332H153.969V288ZM181.969 308H185.969V312H181.969V308ZM181.969 292H189.969V288H193.969V292H205.969V296H193.969V300H197.969V304H189.969V296H181.969V292ZM185.969 304H189.969V308H185.969V304ZM197.969 304H201.969V308H197.969V304ZM201.969 308H205.969V312H201.969V308ZM205.969 300H213.969V288H217.969V316H213.969V304H205.969V300ZM193.969 324H213.969V320H193.969V316H217.969V328H197.969V332H193.969V324ZM197.969 332H217.969V336H197.969V332ZM221.953 296H225.953V324H221.953V296ZM225.953 324H237.953V328H225.953V324ZM225.953 292H237.953V296H225.953V292ZM237.953 296H241.953V324H237.953V296ZM253.953 288H257.953V332H253.953V288ZM289.953 288H313.953V292H293.953V304H289.953V288ZM293.953 304H313.953V308H293.953V304ZM281.953 308H321.953V312H281.953V308ZM289.953 328H301.953V332H313.953V336H293.953V332H289.953V328ZM289.953 320H309.953V324H313.953V328H301.953V324H289.953V320ZM325.969 312H329.969V328H325.969V312ZM325.969 292H345.969V296H337.969V308H333.969V296H325.969V292ZM329.969 308H333.969V312H329.969V308ZM337.969 308H341.969V312H337.969V308ZM341.969 312H345.969V328H341.969V312ZM357.969 288H361.969V332H357.969V288ZM385.969 292H389.969V308H385.969V292ZM389.969 308H405.969V312H389.969V308ZM389.969 288H405.969V292H389.969V288ZM405.969 292H409.969V308H405.969V292ZM413.969 288H417.969V300H425.969V304H417.969V316H413.969V288ZM397.969 316H401.969V332H397.969V316ZM401.969 332H409.969V336H401.969V332ZM409.969 320H413.969V316H417.969V320H421.969V332H417.969V324H413.969V332H409.969V320ZM413.969 332H417.969V336H413.969V332ZM437.984 292H441.984V304H437.984V292ZM441.984 304H457.984V308H441.984V304ZM441.984 288H457.984V292H441.984V288ZM457.984 292H461.984V304H457.984V292ZM429.984 308H469.984V312H429.984V308ZM437.984 328H449.984V332H461.984V336H441.984V332H437.984V328ZM437.984 320H457.984V324H461.984V328H449.984V324H437.984V320ZM474 288H498V304H494V292H474V288ZM486 308H490V312H486V308ZM490 304H494V308H490V304ZM498 300H506V288H510V316H506V304H498V300ZM486 332H490V336H486V332ZM490 328H494V332H490V328ZM494 316H498V328H494V316ZM498 328H502V332H498V328ZM502 332H510V336H502V332ZM534 288H558V304H554V292H534V288ZM546 308H550V312H546V308ZM550 304H554V308H550V304ZM562 288H566V300H574V304H566V316H562V288ZM546 316H570V320H550V324H570V328H550V332H546V316ZM550 332H570V336H550V332ZM586.016 292H590.016V304H586.016V292ZM590.016 304H606.016V308H590.016V304ZM590.016 288H606.016V292H590.016V288ZM606.016 292H610.016V304H606.016V292ZM578.016 308H618.016V312H578.016V308ZM586.016 320H590.016V332H586.016V320ZM590.016 332H610.016V336H590.016V332ZM0.672563 402.48C0.672563 401.04 0.896563 399.888 1.34456 399.024C1.82456 398.128 2.46456 397.488 3.26456 397.104C4.09656 396.72 5.00856 396.528 6.00056 396.528C6.99256 396.528 7.88856 396.72 8.68856 397.104C9.48856 397.488 10.1286 398.128 10.6086 399.024C11.0886 399.888 11.3286 401.04 11.3286 402.48C11.3286 403.888 11.0886 405.04 10.6086 405.936C10.1286 406.8 9.48856 407.44 8.68856 407.856C7.88856 408.24 6.99256 408.432 6.00056 408.432C5.00856 408.432 4.09656 408.24 3.26456 407.856C2.46456 407.44 1.82456 406.8 1.34456 405.936C0.896563 405.04 0.672563 403.888 0.672563 402.48ZM46 388H74V408H50V404H70V392H50V404H46V388ZM42 420H54V412H58V420H78V424H42V420ZM85.9844 396H109.984V392H85.9844V388H113.984V400H89.9844V404H85.9844V396ZM89.9844 404H113.984V408H89.9844V404ZM81.9844 420H117.984V424H81.9844V420ZM121.969 384H145.969V400H141.969V388H121.969V384ZM133.969 404H137.969V408H133.969V404ZM137.969 400H141.969V404H137.969V400ZM145.969 396H149.969V380H153.969V408H149.969V400H145.969V396ZM157.969 384H161.969V412H157.969V384ZM129.969 428H133.969V432H129.969V428ZM133.969 412H137.969V428H133.969V412ZM137.969 428H145.969V432H137.969V428ZM145.969 412H149.969V428H145.969V412ZM149.969 428H157.969V432H149.969V428ZM169.984 388H197.984V404H193.984V392H169.984V388ZM189.984 404H193.984V408H189.984V404ZM165.984 420H177.984V408H181.984V420H197.984V424H165.984V420ZM226 388H254V404H250V392H226V388ZM246 404H250V408H246V404ZM222 416H262V420H222V416ZM266.016 384H270.016V404H266.016V384ZM270.016 404H290.016V408H270.016V404ZM294.016 384H298.016V392H306.016V396H298.016V400H306.016V404H298.016V412H294.016V384ZM278.016 416H282.016V428H278.016V416ZM282.016 428H298.016V432H282.016V428ZM282.016 412H298.016V416H282.016V412ZM298.016 416H302.016V428H298.016V416ZM330.047 384H354.047V408H334.047V404H350.047V388H334.047V404H330.047V384ZM358.047 384H362.047V396H366.047V384H370.047V412H366.047V400H362.047V408H358.047V384ZM342.047 412H366.047V428H362.047V416H342.047V412ZM358.047 428H362.047V432H358.047V428ZM378.063 404H382.063V408H378.063V404ZM378.063 388H406.063V392H390.063V396H394.063V400H386.062V392H378.063V388ZM382.063 400H386.062V404H382.063V400ZM394.063 400H398.062V404H394.063V400ZM398.062 404H406.063V408H398.062V404ZM374.062 412H410.062V416H394.063V428H390.063V416H374.062V412ZM414.047 388H418.047V420H414.047V388ZM418.047 420H434.047V424H418.047V420ZM442.047 384H446.047V400H454.047V404H446.047V428H442.047V384ZM478.078 388H498.078V424H482.078V420H494.078V392H482.078V420H478.078V388ZM506.078 384H510.078V400H518.078V404H510.078V428H506.078V384ZM522.094 412H526.094V424H522.094V412ZM526.094 408H530.094V412H526.094V408ZM530.094 388H534.094V408H530.094V388ZM534.094 408H538.094V412H534.094V408ZM538.094 412H542.094V424H538.094V412ZM554.094 384H558.094V428H554.094V384ZM566.078 388H594.078V404H590.078V392H566.078V388ZM586.078 404H590.078V408H586.078V404ZM562.078 420H574.078V408H578.078V420H594.078V424H562.078V420ZM618.094 404H622.094V408H618.094V404ZM622.094 400H626.094V404H622.094V400ZM626.094 384H630.094V400H626.094V384ZM630.094 400H634.094V404H630.094V400ZM634.094 404H642.094V408H634.094V404ZM650.094 384H654.094V412H650.094V384ZM630.094 428H634.094V416H630.094V412H654.094V416H650.094V428H654.094V432H630.094V428ZM646.094 428V416H638.094V428H646.094ZM666.078 388H670.078V400H666.078V388ZM670.078 400H686.078V404H670.078V400ZM670.078 384H686.078V388H670.078V384ZM686.078 388H690.078V400H686.078V388ZM658.078 404H698.078V408H658.078V404ZM666.078 416H670.078V428H666.078V416ZM670.078 428H690.078V432H670.078V428ZM0.672563 498.48C0.672563 497.04 0.896563 495.888 1.34456 495.024C1.82456 494.128 2.46456 493.488 3.26456 493.104C4.09656 492.72 5.00856 492.528 6.00056 492.528C6.99256 492.528 7.88856 492.72 8.68856 493.104C9.48856 493.488 10.1286 494.128 10.6086 495.024C11.0886 495.888 11.3286 497.04 11.3286 498.48C11.3286 499.888 11.0886 501.04 10.6086 501.936C10.1286 502.8 9.48856 503.44 8.68856 503.856C7.88856 504.24 6.99256 504.432 6.00056 504.432C5.00856 504.432 4.09656 504.24 3.26456 503.856C2.46456 503.44 1.82456 502.8 1.34456 501.936C0.896563 501.04 0.672563 499.888 0.672563 498.48ZM42 492H50V484H54V492H62V516H58V496H46V516H42V492ZM46 516H58V520H46V516ZM70 480H74V496H82V500H74V524H70V480ZM90.0156 484H118.016V500H114.016V488H90.0156V484ZM110.016 500H114.016V504H110.016V500ZM86.0156 516H98.0156V504H102.016V516H118.016V520H86.0156V516ZM122.016 500H126.016V504H122.016V500ZM126.016 496H130.016V500H126.016V496ZM130.016 480H134.016V496H130.016V480ZM134.016 496H138.016V500H134.016V496ZM138.016 500H146.016V504H138.016V500ZM154.016 480H158.016V508H154.016V480ZM134.016 524H138.016V512H134.016V508H158.016V512H154.016V524H158.016V528H134.016V524ZM150.016 524V512H142.016V524H150.016ZM170 484H174V496H170V484ZM174 496H190V500H174V496ZM174 480H190V484H174V480ZM190 484H194V496H190V484ZM162 500H202V504H162V500ZM170 512H174V524H170V512ZM174 524H194V528H174V524ZM226.031 480H250.031V504H230.031V500H246.031V484H230.031V500H226.031V480ZM254.031 480H258.031V492H266.031V496H258.031V508H254.031V480ZM238.031 516H258.031V512H238.031V508H262.031V520H242.031V524H238.031V516ZM242.031 524H262.031V528H242.031V524ZM270.047 488H274.047V516H270.047V488ZM274.047 516H286.047V520H274.047V516ZM274.047 484H286.047V488H274.047V484ZM286.047 488H290.047V516H286.047V488ZM302.047 480H306.047V524H302.047V480ZM330.047 480H354.047V504H334.047V500H350.047V484H334.047V500H330.047V480ZM358.047 480H362.047V492H370.047V496H362.047V508H358.047V480ZM342.047 508H346.047V524H342.047V508ZM346.047 524H354.047V528H346.047V524ZM354.047 512H358.047V508H362.047V512H366.047V524H362.047V516H358.047V524H354.047V512ZM358.047 524H362.047V528H358.047V524ZM382.063 484H386.062V496H382.063V484ZM386.062 496H402.063V500H386.062V496ZM386.062 480H402.063V484H386.062V480ZM402.063 484H406.063V496H402.063V484ZM374.062 500H414.063V504H374.062V500ZM382.063 512H386.062V524H382.063V512ZM386.062 524H406.063V528H386.062V524ZM0.672563 594.48C0.672563 593.04 0.896563 591.888 1.34456 591.024C1.82456 590.128 2.46456 589.488 3.26456 589.104C4.09656 588.72 5.00856 588.528 6.00056 588.528C6.99256 588.528 7.88856 588.72 8.68856 589.104C9.48856 589.488 10.1286 590.128 10.6086 591.024C11.0886 591.888 11.3286 593.04 11.3286 594.48C11.3286 595.888 11.0886 597.04 10.6086 597.936C10.1286 598.8 9.48856 599.44 8.68856 599.856C7.88856 600.24 6.99256 600.432 6.00056 600.432C5.00856 600.432 4.09656 600.24 3.26456 599.856C2.46456 599.44 1.82456 598.8 1.34456 597.936C0.896563 597.04 0.672563 595.888 0.672563 594.48ZM42 584H46V612H42V584ZM46 612H58V616H46V612ZM46 580H58V584H46V580ZM58 584H62V612H58V584ZM74 576H78V620H74V576ZM85.9844 580H89.9844V588H85.9844V580ZM89.9844 588H105.984V592H89.9844V588ZM89.9844 576H105.984V580H89.9844V576ZM105.984 580H109.984V588H105.984V580ZM85.9844 596H93.9844V592H97.9844V596H113.984V576H117.984V592H125.984V596H117.984V604H113.984V600H85.9844V596ZM93.9844 608H97.9844V620H93.9844V608ZM97.9844 620H113.984V624H97.9844V620ZM97.9844 604H113.984V608H97.9844V604ZM113.984 608H117.984V620H113.984V608ZM150 604H154V616H150V604ZM154 600H158V604H154V600ZM158 580H162V600H158V580ZM162 600H166V604H162V600ZM166 604H170V616H166V604ZM178 576H182V592H190V596H182V620H178V576ZM202.016 576H206.016V592H202.016V576ZM206.016 592H226.016V596H206.016V592ZM194.016 596H234.016V600H194.016V596ZM202.016 608H206.016V620H202.016V608ZM206.016 620H226.016V624H206.016V620ZM238.031 580H258.031V608H254.031V584H238.031V580ZM246.031 612H250.031V616H246.031V612ZM250.031 608H254.031V612H250.031V608ZM262.031 592H270.031V576H274.031V620H270.031V596H262.031V592ZM302.031 580H330.031V596H326.031V584H302.031V580ZM322.031 596H326.031V600H322.031V596ZM298.031 608H338.031V612H298.031V608ZM342.047 596H358.047V584H342.047V580H362.047V600H346.047V612H342.047V596ZM346.047 612H362.047V616H346.047V612ZM370.047 576H374.047V592H378.047V576H382.047V620H378.047V596H374.047V616H370.047V576ZM390.063 580H418.063V584H394.063V596H390.063V580ZM394.063 596H418.063V600H394.063V596ZM386.062 612H398.062V604H402.063V612H422.062V616H386.062V612ZM446.062 600H450.063V616H446.062V600ZM446.062 580H466.063V584H458.062V596H454.063V584H446.062V580ZM450.063 596H454.063V600H450.063V596ZM458.062 596H462.063V600H458.062V596ZM462.063 600H466.063V616H462.063V600ZM474.063 576H478.063V592H482.062V576H486.063V620H482.062V596H478.063V616H474.063V576ZM490.078 576H514.078V600H494.078V596H510.078V580H494.078V596H490.078V576ZM522.078 576H526.078V604H522.078V576ZM498.078 620H502.078V624H498.078V620ZM502.078 608H506.078V620H502.078V608ZM506.078 620H514.078V624H506.078V620ZM514.078 608H518.078V620H514.078V608ZM518.078 620H526.078V624H518.078V620ZM530.062 580H550.063V608H546.063V584H530.062V580ZM538.063 612H542.062V616H538.063V612ZM542.062 608H546.063V612H542.062V608ZM550.063 592H554.062V576H558.063V620H554.062V596H550.063V592ZM562.063 576H566.062V620H562.063V576ZM590.062 596H594.063V600H590.062V596ZM594.063 592H598.063V596H594.063V592ZM598.063 576H602.062V592H598.063V576ZM602.062 592H606.063V596H602.062V592ZM606.063 596H614.062V600H606.063V596ZM618.063 576H622.063V588H630.063V592H622.063V604H618.063V576ZM602.062 612H622.063V608H602.062V604H626.062V616H606.063V620H602.062V612ZM606.063 620H626.062V624H606.063V620ZM638.078 580H666.078V596H662.078V584H638.078V580ZM658.078 596H662.078V600H658.078V596ZM634.078 612H646.078V600H650.078V612H666.078V616H634.078V612ZM690.094 596H694.094V600H690.094V596ZM694.094 592H698.094V596H694.094V592ZM698.094 576H702.094V592H698.094V576ZM702.094 592H706.094V596H702.094V592ZM706.094 596H714.094V600H706.094V596ZM722.094 576H726.094V604H722.094V576ZM702.094 620H706.094V608H702.094V604H726.094V608H722.094V620H726.094V624H702.094V620ZM718.094 620V608H710.094V620H718.094ZM738.078 580H742.078V592H738.078V580ZM742.078 592H758.078V596H742.078V592ZM742.078 576H758.078V580H742.078V576ZM758.078 580H762.078V592H758.078V580ZM730.078 596H770.078V600H730.078V596ZM738.078 608H742.078V620H738.078V608ZM742.078 620H762.078V624H742.078V620ZM0.672563 690.48C0.672563 689.04 0.896563 687.888 1.34456 687.024C1.82456 686.128 2.46456 685.488 3.26456 685.104C4.09656 684.72 5.00856 684.528 6.00056 684.528C6.99256 684.528 7.88856 684.72 8.68856 685.104C9.48856 685.488 10.1286 686.128 10.6086 687.024C11.0886 687.888 11.3286 689.04 11.3286 690.48C11.3286 691.888 11.0886 693.04 10.6086 693.936C10.1286 694.8 9.48856 695.44 8.68856 695.856C7.88856 696.24 6.99256 696.432 6.00056 696.432C5.00856 696.432 4.09656 696.24 3.26456 695.856C2.46456 695.44 1.82456 694.8 1.34456 693.936C0.896563 693.04 0.672563 691.888 0.672563 690.48ZM42 672H66V676H46V692H42V672ZM46 692H66V696H46V692ZM70 672H74V684H82V688H74V700H70V672ZM54 704H58V716H54V704ZM58 716H74V720H58V716ZM58 700H74V704H58V700ZM74 704H78V716H74V704ZM86.0156 692H90.0156V696H86.0156V692ZM86.0156 672H110.016V676H98.0156V684H102.016V688H94.0156V676H86.0156V672ZM90.0156 688H94.0156V692H90.0156V688ZM102.016 688H106.016V692H102.016V688ZM106.016 692H110.016V696H106.016V692ZM114.016 672H118.016V684H126.016V688H118.016V700H114.016V672ZM98.0156 704H102.016V716H98.0156V704ZM102.016 716H118.016V720H102.016V716ZM102.016 700H118.016V704H102.016V700ZM118.016 704H122.016V716H118.016V704ZM150.047 700H154.047V712H150.047V700ZM154.047 696H158.047V700H154.047V696ZM158.047 676H162.047V696H158.047V676ZM162.047 696H166.047V700H162.047V696ZM166.047 700H170.047V712H166.047V700ZM174.047 688H178.047V672H182.047V716H178.047V692H174.047V688ZM186.047 672H190.047V716H186.047V672ZM194.062 676H214.063V704H210.063V680H194.062V676ZM202.063 708H206.062V712H202.063V708ZM206.062 704H210.063V708H206.062V704ZM218.062 700H222.063V688H218.062V684H222.063V672H226.063V712H222.063V704H218.062V700ZM230.062 672H234.063V716H230.062V672ZM238.078 680H242.078V708H238.078V680ZM242.078 708H254.078V712H242.078V708ZM242.078 676H254.078V680H242.078V676ZM254.078 680H258.078V708H254.078V680ZM262.078 696H270.078V688H262.078V684H270.078V672H274.078V716H270.078V700H262.078V696ZM278.062 680H286.063V672H290.062V680H302.062V692H298.063V684H282.063V692H278.062V680ZM282.063 692H298.063V696H282.063V692ZM306.063 672H310.063V684H314.062V672H318.063V700H314.062V688H310.063V696H306.063V672ZM290.062 704H294.063V716H290.062V704ZM294.063 716H310.063V720H294.063V716ZM294.063 700H310.063V704H294.063V700ZM310.063 704H314.062V716H310.063V704ZM342.094 676H362.094V680H354.094V708H362.094V712H346.094V708H350.094V680H346.094V708H342.094V676ZM366.094 688H374.094V672H378.094V716H374.094V692H366.094V688ZM382.078 676H386.078V708H382.078V676ZM386.078 708H402.078V712H386.078V708ZM410.078 672H414.078V688H422.078V692H414.078V716H410.078V672ZM426.094 676H430.094V688H442.094V676H446.094V712H430.094V708H442.094V692H430.094V708H426.094V676ZM450.094 688H458.094V672H462.094V716H458.094V692H450.094V688ZM466.078 692H482.078V680H466.078V676H486.078V696H470.078V708H466.078V692ZM470.078 708H486.078V712H470.078V708ZM498.078 672H502.078V716H498.078V672ZM510.063 676H538.063V692H534.063V680H510.063V676ZM530.062 692H534.063V696H530.062V692ZM506.062 708H518.062V696H522.063V708H538.063V712H506.062V708ZM562.078 692H566.078V696H562.078V692ZM566.078 688H570.078V692H566.078V688ZM570.078 672H574.078V688H570.078V672ZM574.078 688H578.078V692H574.078V688ZM578.078 692H586.078V696H578.078V692ZM594.078 672H598.078V700H594.078V672ZM574.078 716H578.078V704H574.078V700H598.078V704H594.078V716H598.078V720H574.078V716ZM590.078 716V704H582.078V716H590.078ZM610.063 676H614.062V688H610.063V676ZM614.062 688H630.063V692H614.062V688ZM614.062 672H630.063V676H614.062V672ZM630.063 676H634.063V688H630.063V676ZM602.062 692H642.063V696H602.062V692ZM610.063 704H614.062V716H610.063V704ZM614.062 716H634.063V720H614.062V716ZM0.672563 786.48C0.672563 785.04 0.896563 783.888 1.34456 783.024C1.82456 782.128 2.46456 781.488 3.26456 781.104C4.09656 780.72 5.00856 780.528 6.00056 780.528C6.99256 780.528 7.88856 780.72 8.68856 781.104C9.48856 781.488 10.1286 782.128 10.6086 783.024C11.0886 783.888 11.3286 785.04 11.3286 786.48C11.3286 787.888 11.0886 789.04 10.6086 789.936C10.1286 790.8 9.48856 791.44 8.68856 791.856C7.88856 792.24 6.99256 792.432 6.00056 792.432C5.00856 792.432 4.09656 792.24 3.26456 791.856C2.46456 791.44 1.82456 790.8 1.34456 789.936C0.896563 789.04 0.672563 787.888 0.672563 786.48ZM46 772H74V788H70V776H46V772ZM66 788H70V792H66V788ZM42 800H82V804H42V800ZM86.0156 788H102.016V776H86.0156V772H106.016V792H90.0156V804H86.0156V788ZM90.0156 804H106.016V808H90.0156V804ZM114.016 768H118.016V784H122.016V768H126.016V812H122.016V788H118.016V808H114.016V768ZM134.031 772H162.031V776H138.031V788H134.031V772ZM138.031 788H162.031V792H138.031V788ZM130.031 804H142.031V796H146.031V804H166.031V808H130.031V804ZM194.031 772H222.031V792H198.031V788H218.031V776H198.031V788H194.031V772ZM190.031 804H202.031V796H206.031V804H226.031V808H190.031V804ZM234.016 780H258.016V776H234.016V772H262.016V784H238.016V788H234.016V780ZM238.016 788H262.016V792H238.016V788ZM230.016 804H266.016V808H230.016V804ZM278 768H282V784H278V768ZM282 784H302V788H282V784ZM270 788H310V792H270V788ZM278 800H282V812H278V800ZM282 812H302V816H282V812ZM334.031 796H338.031V808H334.031V796ZM338.031 792H342.031V796H338.031V792ZM342.031 772H346.031V792H342.031V772ZM346.031 792H350.031V796H346.031V792ZM350.031 796H354.031V808H350.031V796ZM362.031 768H366.031V784H374.031V788H366.031V812H362.031V768ZM378.047 776H398.047V772H378.047V768H402.047V780H382.047V788H378.047V776ZM382.047 788H402.047V792H382.047V788ZM406.047 768H410.047V780H418.047V784H410.047V796H406.047V768ZM390.047 796H414.047V816H394.047V812H410.047V800H394.047V812H390.047V796ZM422.062 776H426.063V804H422.062V776ZM426.063 804H438.063V808H426.063V804ZM426.063 772H438.063V776H426.063V772ZM438.063 776H442.063V804H438.063V776ZM446.062 784H450.063V768H454.063V812H450.063V788H446.062V784ZM458.062 768H462.063V812H458.062V768ZM466.078 772H486.078V800H482.078V776H466.078V772ZM474.078 804H478.078V808H474.078V804ZM478.078 800H482.078V804H478.078V800ZM486.078 784H490.078V768H494.078V812H490.078V788H486.078V784ZM498.078 768H502.078V812H498.078V768ZM506.062 788H522.063V776H506.062V772H526.063V792H510.063V804H506.062V788ZM510.063 804H526.063V808H510.063V804ZM534.063 768H538.063V784H546.063V788H538.063V812H534.063V768ZM550.078 768H574.078V792H554.078V788H570.078V772H554.078V788H550.078V768ZM574.078 784H582.078V780H574.078V776H582.078V768H586.078V796H582.078V788H574.078V784ZM562.078 800H566.078V812H562.078V800ZM566.078 812H586.078V816H566.078V812ZM610.078 768H634.078V772H614.078V776H630.078V780H614.078V788H610.078V768ZM614.078 788H634.078V792H614.078V788ZM634.078 780H642.078V768H646.078V796H642.078V784H634.078V780ZM622.078 804H642.078V800H622.078V796H646.078V808H626.078V812H622.078V804ZM626.078 812H646.078V816H626.078V812ZM650.062 776H654.063V804H650.062V776ZM654.063 804H666.063V808H654.063V804ZM654.063 772H666.063V776H654.063V772ZM666.063 776H670.063V804H666.063V776ZM674.062 784H682.063V768H686.062V812H682.063V788H674.062V784ZM718.063 768H722.062V784H718.063V768ZM722.062 784H742.063V788H722.062V784ZM710.062 792H726.063V784H730.063V792H750.063V796H710.062V792ZM718.063 800H726.063V796H730.063V800H742.063V812H738.063V804H722.062V812H718.063V800ZM722.062 812H738.063V816H722.062V812ZM754.078 776H758.078V804H754.078V776ZM758.078 804H770.078V808H758.078V804ZM758.078 772H770.078V776H758.078V772ZM770.078 776H774.078V804H770.078V776ZM782.078 768H786.078V784H794.078V788H786.078V812H782.078V768ZM818.109 772H822.109V784H834.109V772H838.109V808H822.109V804H834.109V788H822.109V804H818.109V772ZM842.109 784H850.109V768H854.109V812H850.109V788H842.109V784ZM858.094 776H878.094V772H858.094V768H882.094V780H862.094V788H858.094V776ZM862.094 788H882.094V792H862.094V788ZM890.094 768H894.094V796H890.094V768ZM870.094 804H890.094V800H870.094V796H894.094V808H874.094V812H870.094V804ZM874.094 812H894.094V816H874.094V812ZM922.094 788H930.094V792H922.094V788ZM930.094 784H934.094V788H930.094V784ZM934.094 772H938.094V784H934.094V772ZM938.094 784H942.094V788H938.094V784ZM942.094 788H950.094V792H942.094V788ZM918.094 796H954.094V800H938.094V812H934.094V800H918.094V796ZM978.094 772H982.094V788H978.094V772ZM982.094 788H998.094V792H982.094V788ZM982.094 768H998.094V772H982.094V768ZM998.094 772H1002.09V788H998.094V772ZM1010.09 768H1014.09V796H1010.09V768ZM986.094 812H990.094V816H986.094V812ZM990.094 800H994.094V812H990.094V800ZM994.094 812H1002.09V816H994.094V812ZM1002.09 800H1006.09V812H1002.09V800ZM1006.09 812H1014.09V816H1006.09V812ZM1026.08 772H1030.08V784H1026.08V772ZM1030.08 784H1046.08V788H1030.08V784ZM1030.08 768H1046.08V772H1030.08V768ZM1046.08 772H1050.08V784H1046.08V772ZM1018.08 788H1058.08V792H1018.08V788ZM1026.08 808H1038.08V812H1050.08V816H1030.08V812H1026.08V808ZM1026.08 800H1046.08V804H1050.08V808H1038.08V804H1026.08V800ZM1082.11 768H1106.11V784H1102.11V772H1082.11V768ZM1094.11 788H1098.11V792H1094.11V788ZM1098.11 784H1102.11V788H1098.11V784ZM1106.11 780H1114.11V768H1118.11V796H1114.11V784H1106.11V780ZM1094.11 812H1098.11V816H1094.11V812ZM1098.11 808H1102.11V812H1098.11V808ZM1102.11 796H1106.11V808H1102.11V796ZM1106.11 808H1110.11V812H1106.11V808ZM1110.11 812H1118.11V816H1110.11V812ZM1122.09 768H1146.09V792H1126.09V788H1142.09V772H1126.09V788H1122.09V768ZM1150.09 768H1154.09V780H1162.09V784H1154.09V796H1150.09V768ZM1134.09 796H1138.09V812H1134.09V796ZM1138.09 812H1158.09V816H1138.09V812ZM42 816H66V832H62V820H42V816ZM54 836H58V840H54V836ZM58 832H62V836H58V832ZM70 816H74V828H82V832H74V844H70V816ZM54 844H78V848H58V852H78V856H58V860H54V844ZM58 860H78V864H58V860ZM94.0156 820H98.0156V832H94.0156V820ZM98.0156 832H114.016V836H98.0156V832ZM98.0156 816H114.016V820H98.0156V816ZM114.016 820H118.016V832H114.016V820ZM86.0156 836H126.016V840H86.0156V836ZM94.0156 848H98.0156V860H94.0156V848ZM98.0156 860H118.016V864H98.0156V860Z" fill="white"/>
</svg>
